<svg xmlns="http://www.w3.org/2000/svg" viewBox="0 0 24 24" width="28" height="28" color="#f45c70" fill="none">
    <defs />
    <path fill="#f45c70" d="M17.165,10.25 L17.237,10.25 C18.235,10.25 19.034,10.25 19.678,10.308 C20.34,10.368 20.91,10.495 21.426,10.793 C22.042,11.148 22.553,11.659 22.909,12.275 C23.206,12.791 23.333,13.362 23.393,14.023 C23.451,14.667 23.451,15.466 23.451,16.464 L23.451,16.536 C23.451,17.534 23.451,18.333 23.393,18.977 C23.333,19.638 23.206,20.209 22.909,20.725 C22.553,21.341 22.042,21.852 21.426,22.207 C20.91,22.505 20.34,22.632 19.678,22.692 C19.034,22.75 18.235,22.75 17.237,22.75 L17.165,22.75 C16.168,22.75 15.368,22.75 14.725,22.692 C14.063,22.632 13.492,22.505 12.976,22.207 C12.361,21.852 11.849,21.341 11.494,20.725 C11.196,20.209 11.069,19.638 11.009,18.977 C10.951,18.333 10.951,17.534 10.951,16.536 L10.951,16.464 C10.951,15.466 10.951,14.667 11.009,14.023 C11.069,13.362 11.196,12.791 11.494,12.275 C11.849,11.659 12.361,11.148 12.976,10.793 C13.492,10.495 14.063,10.368 14.725,10.308 C15.368,10.25 16.168,10.25 17.165,10.25 Z M14.86,11.802 C14.302,11.853 13.976,11.948 13.726,12.092 C13.339,12.315 13.017,12.637 12.793,13.025 C12.649,13.275 12.554,13.601 12.503,14.159 C12.452,14.727 12.451,15.458 12.451,16.5 C12.451,17.542 12.452,18.273 12.503,18.841 C12.554,19.399 12.649,19.725 12.793,19.975 C13.017,20.363 13.339,20.685 13.726,20.908 C13.976,21.052 14.302,21.147 14.86,21.198 C15.428,21.249 16.159,21.25 17.201,21.25 C18.243,21.25 18.974,21.249 19.542,21.198 C20.1,21.147 20.427,21.052 20.676,20.908 C21.064,20.685 21.386,20.363 21.61,19.975 C21.754,19.725 21.848,19.399 21.899,18.841 C21.951,18.273 21.951,17.542 21.951,16.5 C21.951,15.458 21.951,14.727 21.899,14.159 C21.848,13.601 21.754,13.275 21.61,13.025 C21.386,12.637 21.064,12.315 20.676,12.092 C20.427,11.948 20.1,11.853 19.542,11.802 C18.974,11.751 18.243,11.75 17.201,11.75 C16.159,11.75 15.428,11.751 14.86,11.802 Z M11.261,5.25 L11.261,5.25 C12.076,5.25 12.739,5.25 13.274,5.299 C13.828,5.349 14.319,5.455 14.767,5.714 C15.294,6.018 15.731,6.456 16.035,6.982 C16.289,7.422 16.396,7.902 16.448,8.442 C16.487,8.855 16.185,9.221 15.772,9.26 C15.36,9.299 14.994,8.997 14.955,8.584 C14.913,8.151 14.839,7.91 14.736,7.732 C14.564,7.434 14.316,7.186 14.017,7.013 C13.835,6.908 13.589,6.833 13.139,6.792 C12.679,6.751 12.085,6.75 11.225,6.75 C10.366,6.75 9.771,6.751 9.311,6.792 C8.862,6.833 8.615,6.908 8.433,7.013 C8.135,7.186 7.887,7.434 7.714,7.732 C7.609,7.914 7.534,8.161 7.494,8.61 C7.452,9.07 7.451,9.665 7.451,10.524 C7.451,11.384 7.452,11.978 7.494,12.438 C7.534,12.887 7.609,13.134 7.714,13.316 C7.887,13.615 8.135,13.863 8.433,14.035 C8.612,14.138 8.852,14.212 9.286,14.253 C9.698,14.293 10,14.659 9.961,15.071 C9.922,15.483 9.556,15.786 9.143,15.747 C8.603,15.695 8.123,15.588 7.683,15.334 C7.157,15.03 6.719,14.593 6.415,14.066 C6.157,13.618 6.05,13.127 6,12.573 C5.951,12.038 5.951,11.375 5.951,10.56 L5.951,10.489 C5.951,9.673 5.951,9.01 6,8.475 C6.05,7.921 6.157,7.43 6.415,6.982 C6.719,6.456 7.157,6.018 7.683,5.714 C8.132,5.455 8.623,5.349 9.176,5.299 C9.712,5.25 10.374,5.25 11.19,5.25 L11.261,5.25 Z M6.252,1.25 L6.32,1.25 C6.961,1.25 7.492,1.25 7.924,1.289 C8.373,1.329 8.787,1.417 9.169,1.637 C9.697,1.94 10.179,2.439 10.407,3.074 C10.547,3.464 10.344,3.894 9.954,4.034 C9.564,4.173 9.135,3.971 8.995,3.581 C8.908,3.337 8.697,3.095 8.422,2.937 C8.305,2.87 8.135,2.814 7.789,2.783 C7.433,2.751 6.97,2.75 6.286,2.75 C5.602,2.75 5.139,2.751 4.783,2.783 C4.438,2.814 4.267,2.87 4.151,2.937 C3.937,3.06 3.761,3.236 3.638,3.447 C3.571,3.563 3.515,3.731 3.484,4.075 C3.452,4.429 3.451,4.89 3.451,5.571 C3.451,6.252 3.452,6.713 3.484,7.067 C3.515,7.411 3.571,7.579 3.638,7.694 C3.806,7.985 4.068,8.202 4.335,8.282 C4.731,8.402 4.955,8.821 4.835,9.217 C4.715,9.614 4.296,9.838 3.9,9.718 C3.211,9.509 2.666,9.009 2.34,8.447 C2.119,8.065 2.031,7.651 1.99,7.203 C1.951,6.773 1.951,6.244 1.951,5.605 L1.951,5.536 C1.951,4.898 1.951,4.369 1.99,3.939 C2.031,3.491 2.119,3.077 2.34,2.695 C2.595,2.255 2.962,1.89 3.403,1.637 C3.785,1.417 4.199,1.329 4.649,1.289 C5.08,1.25 5.611,1.25 6.252,1.25 L6.252,1.25 Z" />
</svg>