<svg xmlns="http://www.w3.org/2000/svg" viewBox="0 0 24 24" width="28" height="28" color="#f45c70" fill="none">
    <path fill-rule="evenodd" clip-rule="evenodd" d="M11.252 22C11.252 22.41 11.592 22.75 12.002 22.75C17.932 22.75 22.752 17.93 22.752 12C22.752 6.07 17.932 1.25 12.002 1.25C11.592 1.25 11.252 1.59 11.252 2C11.252 2.41 11.592 2.75 12.002 2.75C17.102 2.75 21.252 6.9 21.252 12C21.252 17.1 17.102 21.25 12.002 21.25C11.592 21.25 11.252 21.59 11.252 22ZM8.76209 22.2085C8.84209 22.2385 8.92209 22.2485 9.00209 22.2485C9.31209 22.2485 9.60209 22.0485 9.71209 21.7385C9.84209 21.3485 9.63209 20.9185 9.24209 20.7885C8.09209 20.3985 7.06209 19.8485 6.18209 19.1585C5.86209 18.9085 5.39209 18.9585 5.13209 19.2885C4.88209 19.6085 4.93209 20.0785 5.26209 20.3385C6.28209 21.1285 7.45209 21.7585 8.76209 22.2085ZM2.66209 17.4585C2.80209 17.6785 3.05209 17.8085 3.30209 17.8085C3.44209 17.8085 3.58209 17.7785 3.70209 17.6985C4.05209 17.4785 4.16209 17.0185 3.94209 16.6685C3.34209 15.7085 2.94209 14.6885 2.74209 13.6185C2.66209 13.2085 2.27209 12.9385 1.86209 13.0185C1.45209 13.0985 1.18209 13.4885 1.26209 13.8985C1.50209 15.1485 1.97209 16.3485 2.66209 17.4585ZM1.9979 10.9985L2.00209 10.9985H1.99209L1.9979 10.9985ZM2.73209 10.3885C2.66247 10.7466 2.35542 10.9958 1.9979 10.9985C1.9796 10.9983 1.90566 10.9972 1.86209 10.9885C1.45209 10.9085 1.18209 10.5185 1.26209 10.1085C1.49209 8.85848 1.96209 7.65849 2.66209 6.54849C2.88209 6.19849 3.34209 6.0885 3.69209 6.3085C4.04209 6.5285 4.15209 6.98853 3.93209 7.33853C3.34209 8.29853 2.93209 9.31851 2.73209 10.3885ZM5.13209 4.70852C5.27209 4.89852 5.50209 4.9985 5.72209 4.9985L5.71209 5.00851C5.87209 5.00851 6.03209 4.95847 6.17209 4.84847C7.08209 4.13847 8.11209 3.58852 9.23209 3.20852C9.62209 3.07852 9.83209 2.64851 9.70209 2.25851C9.57209 1.86851 9.14209 1.65848 8.75209 1.78848C7.48209 2.21848 6.30209 2.84847 5.26209 3.65847C4.94209 3.90847 4.88209 4.37852 5.13209 4.70852ZM9.52254 11.8127C8.74355 11.1254 8.25195 10.1197 8.25195 9C8.25195 6.93 9.93195 5.25 12.002 5.25C14.072 5.25 15.752 6.93 15.752 9C15.752 10.1197 15.2604 11.1254 14.4814 11.8127C16.414 12.7404 17.752 14.7172 17.752 17C17.752 17.41 17.412 17.75 17.002 17.75C16.592 17.75 16.252 17.41 16.252 17C16.252 14.66 14.342 12.75 12.002 12.75C9.66195 12.75 7.75195 14.66 7.75195 17C7.75195 17.41 7.41195 17.75 7.00195 17.75C6.59195 17.75 6.25195 17.41 6.25195 17C6.25195 14.7172 7.58986 12.7404 9.52254 11.8127ZM12.002 11.25C13.242 11.25 14.252 10.24 14.252 9C14.252 7.76 13.242 6.75 12.002 6.75C10.762 6.75 9.75195 7.76 9.75195 9C9.75195 10.24 10.762 11.25 12.002 11.25Z" fill="#f45c70" />
</svg>