<svg xmlns="http://www.w3.org/2000/svg" viewBox="0 0 24 24" width="28" height="28" color="#f45c70" fill="none">
    <defs />
    <path fill="#f45c70" d="M12.057,1.75 L12.057,1.75 C14.248,1.75 15.969,1.75 17.312,1.931 C18.689,2.116 19.781,2.503 20.639,3.361 C21.497,4.219 21.884,5.311 22.069,6.688 C22.25,8.031 22.25,9.752 22.25,11.943 L22.25,12.057 C22.25,14.248 22.25,15.969 22.069,17.312 C21.884,18.689 21.497,19.781 20.639,20.639 C19.781,21.497 18.689,21.884 17.312,22.069 C15.969,22.25 14.248,22.25 12.057,22.25 L11.943,22.25 C10.917,22.25 9.995,22.25 9.166,22.232 C9.113,22.244 9.057,22.25 9,22.25 C8.929,22.25 8.86,22.24 8.795,22.222 C8.007,22.198 7.307,22.153 6.688,22.069 C5.311,21.884 4.219,21.497 3.361,20.639 C2.503,19.781 2.116,18.689 1.931,17.312 C1.75,15.969 1.75,14.248 1.75,12.057 L1.75,11.943 C1.75,9.752 1.75,8.031 1.931,6.688 C2.116,5.311 2.503,4.219 3.361,3.361 C4.219,2.503 5.311,2.116 6.688,1.931 C8.031,1.75 9.752,1.75 11.943,1.75 L12.057,1.75 Z M9.75,20.741 C10.422,20.75 11.167,20.75 12,20.75 C14.26,20.75 15.88,20.748 17.112,20.583 C18.322,20.42 19.045,20.111 19.578,19.578 C20.111,19.045 20.42,18.322 20.583,17.112 C20.748,15.88 20.75,14.26 20.75,12 C20.75,11.167 20.75,10.422 20.741,9.75 L9.75,9.75 Z M20.699,8.25 C20.675,7.747 20.638,7.296 20.583,6.888 C20.42,5.678 20.111,4.955 19.578,4.422 C19.045,3.889 18.322,3.58 17.112,3.417 C15.88,3.252 14.26,3.25 12,3.25 C9.74,3.25 8.12,3.252 6.888,3.417 C5.678,3.58 4.955,3.889 4.422,4.422 C3.889,4.955 3.58,5.678 3.417,6.888 C3.362,7.296 3.325,7.747 3.301,8.25 L20.699,8.25 Z M8.25,9.75 L3.259,9.75 C3.25,10.422 3.25,11.167 3.25,12 C3.25,14.26 3.252,15.88 3.417,17.112 C3.58,18.322 3.889,19.045 4.422,19.578 C4.955,20.111 5.678,20.42 6.888,20.583 C7.296,20.638 7.747,20.675 8.25,20.699 Z M13,12.25 L17,12.25 C17.414,12.25 17.75,12.586 17.75,13 C17.75,13.414 17.414,13.75 17,13.75 L13,13.75 C12.586,13.75 12.25,13.414 12.25,13 C12.25,12.586 12.586,12.25 13,12.25 Z M12.25,17 C12.25,16.586 12.586,16.25 13,16.25 L15,16.25 C15.414,16.25 15.75,16.586 15.75,17 C15.75,17.414 15.414,17.75 15,17.75 L13,17.75 C12.586,17.75 12.25,17.414 12.25,17 Z M10,6 C10,5.448 10.448,5 11,5 L11.009,5 C11.561,5 12.009,5.448 12.009,6 C12.009,6.552 11.561,7 11.009,7 L11,7 C10.448,7 10,6.552 10,6 Z M7,5 L7.009,5 C7.561,5 8.009,5.448 8.009,6 C8.009,6.552 7.561,7 7.009,7 L7,7 C6.448,7 6,6.552 6,6 C6,5.448 6.448,5 7,5 Z" />
</svg>