<svg xmlns="http://www.w3.org/2000/svg" viewBox="0 0 24 24" width="28" height="28" color="#f45c70" fill="none">
    <defs />
    <path fill="#f45c70" d="M3.081,4.503 C3.331,4.453 3.591,4.533 3.771,4.713 L4.971,5.913 L5.911,5.913 L5.911,4.973 L4.711,3.773 C4.531,3.593 4.451,3.333 4.501,3.083 C4.551,2.833 4.731,2.633 4.961,2.543 C6.481,1.953 8.281,2.273 9.511,3.493 C10.606,4.596 10.976,6.159 10.614,7.566 L12.992,9.943 L16.936,5.999 L16.47,5.534 C16.31,5.374 16.23,5.144 16.26,4.914 C16.28,4.684 16.42,4.484 16.61,4.364 L19.11,2.864 C19.41,2.684 19.79,2.734 20.03,2.974 L21.03,3.974 C21.27,4.214 21.32,4.594 21.14,4.894 L19.64,7.394 C19.52,7.584 19.32,7.724 19.09,7.744 C18.86,7.774 18.63,7.694 18.47,7.534 L17.996,7.059 L14.052,11.003 L16.438,13.39 C17.845,13.028 19.408,13.398 20.511,14.493 C21.731,15.723 22.051,17.523 21.461,19.043 C21.371,19.273 21.171,19.453 20.921,19.503 C20.671,19.553 20.411,19.473 20.231,19.293 L19.031,18.093 L18.091,18.093 L18.091,19.033 L19.291,20.233 C19.471,20.413 19.551,20.673 19.501,20.923 C19.451,21.173 19.271,21.373 19.041,21.463 C17.521,22.053 15.721,21.733 14.491,20.513 C13.399,19.411 13.028,17.861 13.386,16.458 L12.346,15.418 L7.132,20.631 C6.312,21.461 4.982,21.461 4.162,20.631 L3.372,19.841 C2.543,19.021 2.543,17.691 3.372,16.871 L8.586,11.658 L7.546,10.618 C6.143,10.976 4.593,10.605 3.491,9.513 C2.271,8.283 1.951,6.483 2.541,4.963 C2.631,4.733 2.831,4.553 3.081,4.503 Z M4.561,8.443 C5.351,9.243 6.511,9.453 7.491,9.073 C7.771,8.963 8.081,9.023 8.291,9.233 L14.771,15.713 C14.981,15.923 15.041,16.233 14.931,16.513 C14.551,17.493 14.761,18.653 15.561,19.443 C16.012,19.9 16.584,20.164 17.174,20.236 L16.811,19.873 C16.671,19.733 16.591,19.543 16.591,19.343 L16.591,17.343 C16.591,16.933 16.931,16.593 17.341,16.593 L19.341,16.593 C19.541,16.593 19.731,16.673 19.871,16.813 L20.235,17.176 C20.163,16.586 19.898,16.014 19.441,15.563 C18.651,14.763 17.491,14.553 16.501,14.943 C16.231,15.043 15.911,14.983 15.701,14.773 L9.231,8.303 C9.021,8.093 8.961,7.773 9.061,7.503 C9.451,6.513 9.241,5.353 8.441,4.563 C7.99,4.106 7.418,3.841 6.828,3.769 L7.191,4.133 C7.331,4.273 7.411,4.463 7.411,4.663 L7.411,6.663 C7.411,7.073 7.071,7.413 6.661,7.413 L4.661,7.413 C4.461,7.413 4.271,7.333 4.131,7.193 L3.768,6.829 C3.84,7.42 4.104,7.992 4.561,8.443 Z M11.286,14.358 L9.646,12.718 L4.432,17.931 C4.192,18.171 4.192,18.551 4.432,18.781 L5.222,19.571 C5.452,19.811 5.832,19.811 6.073,19.571 Z M18.209,5.153 L18.851,5.795 L19.556,4.62 L19.384,4.448 Z" />
</svg>