<svg xmlns="http://www.w3.org/2000/svg" viewBox="0 0 24 24" width="28" height="28" color="#f45c70" fill="none">
    <defs />
    <path fill="#f45c70" d="M12.458,12.25 L17.542,12.25 C18.444,12.25 19.181,12.25 19.772,12.314 C20.387,12.381 20.933,12.524 21.41,12.871 C21.686,13.071 21.929,13.314 22.129,13.59 C22.476,14.067 22.619,14.613 22.686,15.228 C22.75,15.819 22.75,16.556 22.75,17.458 L22.75,17.542 C22.75,18.444 22.75,19.181 22.686,19.772 C22.619,20.387 22.476,20.933 22.129,21.41 C21.929,21.686 21.686,21.929 21.41,22.129 C20.933,22.476 20.387,22.619 19.772,22.686 C19.181,22.75 18.444,22.75 17.542,22.75 L12.458,22.75 C11.556,22.75 10.819,22.75 10.228,22.686 C9.613,22.619 9.067,22.476 8.59,22.129 C8.314,21.929 8.071,21.686 7.871,21.41 C7.524,20.933 7.381,20.387 7.314,19.772 C7.25,19.181 7.25,18.444 7.25,17.542 L7.25,17.458 C7.25,16.556 7.25,15.819 7.314,15.228 C7.381,14.613 7.524,14.067 7.871,13.59 C8.071,13.314 8.314,13.071 8.59,12.871 C9.067,12.524 9.613,12.381 10.228,12.314 C10.819,12.25 11.556,12.25 12.458,12.25 Z M9.943,1.25 L12.057,1.25 C13.894,1.25 15.351,1.25 16.491,1.406 C17.665,1.566 18.615,1.904 19.363,2.664 C20.109,3.422 20.44,4.383 20.597,5.57 C20.75,6.726 20.75,8.204 20.75,10.072 L20.75,10.128 C20.75,10.542 20.414,10.878 20,10.878 C19.586,10.878 19.25,10.542 19.25,10.128 C19.25,8.745 19.249,7.646 19.198,6.75 L2.802,6.75 C2.751,7.646 2.75,8.745 2.75,10.128 C2.75,12.065 2.752,13.443 2.89,14.489 C3.026,15.515 3.281,16.108 3.706,16.54 C4.048,16.888 4.489,17.119 5.162,17.268 C5.566,17.357 5.822,17.757 5.732,18.162 C5.643,18.566 5.242,18.822 4.838,18.732 C3.962,18.539 3.234,18.198 2.637,17.592 C1.891,16.834 1.56,15.873 1.403,14.686 C1.25,13.53 1.25,12.053 1.25,10.184 L1.25,10.072 C1.25,8.204 1.25,6.726 1.403,5.57 C1.56,4.383 1.891,3.422 2.637,2.664 C3.385,1.904 4.335,1.566 5.509,1.406 C6.649,1.25 8.106,1.25 9.943,1.25 Z M10.389,13.805 C9.902,13.858 9.651,13.954 9.471,14.084 C9.323,14.192 9.192,14.323 9.084,14.471 C8.954,14.651 8.858,14.902 8.805,15.389 C8.751,15.891 8.75,16.546 8.75,17.5 C8.75,18.454 8.751,19.11 8.805,19.611 C8.858,20.098 8.954,20.349 9.084,20.529 C9.192,20.677 9.323,20.808 9.471,20.916 C9.651,21.046 9.902,21.142 10.389,21.195 C10.891,21.249 11.546,21.25 12.5,21.25 L17.5,21.25 C18.454,21.25 19.11,21.249 19.611,21.195 C20.098,21.142 20.349,21.046 20.529,20.916 C20.677,20.808 20.808,20.677 20.916,20.529 C21.046,20.349 21.142,20.098 21.195,19.611 C21.249,19.11 21.25,18.454 21.25,17.5 C21.25,16.546 21.249,15.891 21.195,15.389 C21.142,14.902 21.046,14.651 20.916,14.471 C20.808,14.323 20.677,14.192 20.529,14.084 C20.349,13.954 20.098,13.858 19.611,13.805 C19.11,13.751 18.454,13.75 17.5,13.75 L12.5,13.75 C11.546,13.75 10.891,13.751 10.389,13.805 Z M2.976,5.25 L19.024,5.25 C18.876,4.532 18.642,4.07 18.294,3.716 C17.87,3.286 17.292,3.029 16.288,2.892 C15.261,2.752 13.907,2.75 12,2.75 L10,2.75 C8.093,2.75 6.739,2.752 5.712,2.892 C4.709,3.029 4.13,3.286 3.706,3.716 C3.358,4.07 3.124,4.532 2.976,5.25 Z M14.068,15.51 C14.339,15.824 14.303,16.298 13.99,16.568 L13.07,17.361 C13.009,17.414 12.956,17.459 12.909,17.5 C12.956,17.541 13.009,17.586 13.07,17.639 L13.99,18.432 C14.303,18.702 14.339,19.176 14.068,19.49 C13.798,19.803 13.324,19.838 13.01,19.568 L12.09,18.775 L12.063,18.751 C11.894,18.606 11.715,18.451 11.583,18.303 C11.435,18.136 11.25,17.87 11.25,17.5 C11.25,17.13 11.435,16.864 11.583,16.697 C11.715,16.549 11.894,16.394 12.063,16.249 L12.063,16.249 L12.09,16.225 L13.01,15.432 C13.324,15.161 13.798,15.197 14.068,15.51 Z M16.01,16.568 C15.697,16.298 15.661,15.824 15.932,15.51 C16.202,15.197 16.676,15.161 16.99,15.432 L17.91,16.225 L17.937,16.249 C18.106,16.394 18.285,16.549 18.417,16.697 C18.565,16.864 18.75,17.13 18.75,17.5 C18.75,17.87 18.565,18.136 18.417,18.303 C18.285,18.451 18.106,18.606 17.937,18.751 L17.91,18.775 L16.99,19.568 C16.676,19.838 16.202,19.803 15.932,19.49 C15.661,19.176 15.697,18.702 16.01,18.432 L16.93,17.639 C16.991,17.586 17.044,17.541 17.091,17.5 C17.044,17.459 16.991,17.414 16.93,17.361 Z" />
</svg>